<?xml version="1.0" standalone="no"?>
<!DOCTYPE svg PUBLIC "-//W3C//DTD SVG 20010904//EN"
 "http://www.w3.org/TR/2001/REC-SVG-20010904/DTD/svg10.dtd">
<svg version="1.0" xmlns="http://www.w3.org/2000/svg"
 width="260.000000pt" height="260.000000pt" viewBox="0 0 260.000000 260.000000"
 preserveAspectRatio="xMidYMid meet">
<metadata>
Created by potrace 1.14, written by Peter Selinger 2001-2017
</metadata>
<g transform="translate(0.000000,260.000000) scale(0.100000,-0.100000)"
fill="#000000" stroke="none">
<path d="M1425 1578 c4 -13 11 -27 16 -32 15 -17 10 -26 -13 -25 -31 2 -129
-11 -141 -18 -5 -3 -13 0 -17 6 -9 15 -69 15 -157 0 -4 -1 -67 -1 -139 0 -128
1 -131 1 -144 26 -7 13 -28 29 -47 36 -33 11 -220 15 -230 6 -12 -13 -4 -82
11 -93 21 -15 23 -114 2 -114 -10 0 -15 -15 -18 -50 l-3 -50 115 -1 c63 0 136
-1 162 -1 25 0 51 3 57 6 6 4 11 3 11 -2 0 -6 10 -8 23 -4 20 5 21 4 7 -14
-14 -17 -14 -18 2 -6 9 8 23 10 29 6 8 -5 9 -3 4 5 -5 10 7 12 56 7 35 -2 74
-5 87 -5 14 -1 21 -5 16 -12 -3 -6 6 -3 20 6 26 17 27 17 42 -1 8 -10 14 -14
13 -9 -3 22 2 29 11 15 6 -10 10 -11 10 -3 0 18 89 5 115 -16 18 -15 19 -15 7
1 -20 25 12 35 46 15 6 -5 12 -4 12 2 0 6 44 10 115 10 72 0 113 -3 110 -9 -4
-6 -1 -10 4 -10 6 0 11 4 11 9 0 4 92 9 205 9 113 1 209 3 213 6 12 7 5 80 -8
84 -5 2 -10 19 -10 38 0 43 -23 90 -52 105 -25 13 -211 13 -216 -1 -2 -5 -12
-5 -25 0 -18 7 -59 15 -132 25 -5 1 -20 -2 -32 -6 l-22 -8 19 35 c11 19 20 39
20 44 0 6 -37 10 -86 10 -84 0 -85 0 -79 -22z m-591 -174 c3 -8 2 -12 -4 -9
-6 3 -10 10 -10 16 0 14 7 11 14 -7z"/>
<path d="M1433 1245 c0 -8 4 -12 9 -9 5 3 6 10 3 15 -9 13 -12 11 -12 -6z"/>
<path d="M1236 1238 c3 -5 10 -6 15 -3 13 9 11 12 -6 12 -8 0 -12 -4 -9 -9z"/>
<path d="M715 1152 c-11 -2 -35 -16 -54 -31 -19 -14 -39 -29 -45 -33 -5 -4
-11 -24 -12 -46 -1 -22 -4 -44 -8 -50 -9 -14 15 -21 37 -10 14 7 17 4 17 -17
0 -23 -8 -29 -35 -26 -6 0 -11 -20 -12 -45 -2 -38 1 -46 20 -53 12 -5 26 -7
30 -4 4 3 15 -1 24 -9 10 -8 14 -8 10 -1 -6 9 12 11 65 10 50 -1 73 2 73 10 0
6 3 15 8 19 4 4 7 2 7 -4 0 -7 7 -12 15 -12 7 0 19 -8 24 -17 6 -10 11 -13 11
-8 0 6 20 10 45 11 29 0 42 -3 37 -10 -3 -6 11 6 33 27 32 31 40 35 47 22 14
-24 59 -71 53 -53 -5 11 1 15 22 13 20 -1 34 7 50 28 21 29 22 29 35 8 7 -12
19 -21 26 -21 7 0 11 -4 8 -8 -2 -4 26 -8 64 -8 38 0 66 4 64 8 -5 7 10 12 29
9 4 0 6 2 5 6 -2 5 5 19 14 32 15 21 18 22 32 8 9 -9 16 -23 16 -31 0 -9 6
-13 14 -10 8 3 24 -4 35 -15 12 -12 21 -18 21 -13 0 4 17 7 38 6 24 0 36 -4
34 -13 -1 -7 2 -10 8 -6 6 3 8 11 4 16 -3 6 3 13 15 16 12 3 21 9 21 14 0 5 7
9 16 9 8 0 13 3 11 8 -3 4 1 13 9 20 11 10 19 6 45 -23 17 -19 36 -32 40 -29
5 3 9 0 9 -5 0 -6 6 -10 13 -8 6 1 11 -5 9 -13 -1 -10 2 -9 13 4 11 14 15 16
15 5 0 -8 3 -10 8 -4 4 6 14 11 22 11 19 -1 80 35 80 47 0 4 4 5 10 2 5 -3 7
0 4 8 -3 8 -1 18 5 21 17 11 24 92 11 133 -37 116 -173 148 -248 58 l-28 -35
-14 25 c-21 38 -58 58 -114 59 -55 0 -110 -29 -122 -66 -4 -15 -11 -12 -43 22
-21 22 -44 41 -52 41 -88 8 -118 0 -158 -46 -19 -22 -32 -50 -36 -78 -7 -43
-7 -43 -48 -44 -41 -1 -42 0 -45 35 -7 97 -99 161 -188 132 -35 -12 -78 -53
-93 -90 -9 -22 -10 -20 -9 20 0 25 0 50 -1 56 -1 13 -37 22 -66 16z m222 -152
c1 -28 -2 -50 -7 -50 -13 0 -16 54 -5 88 7 21 10 13 12 -38z m379 -11 c1 -49
-12 -69 -18 -26 -4 31 3 89 10 82 4 -3 7 -28 8 -56z m270 -2 c-3 -12 -5 -29
-5 -37 -1 -11 -3 -12 -9 -3 -4 7 -7 29 -6 50 2 56 4 60 14 35 6 -13 8 -33 6
-45z m264 7 c0 -34 -4 -53 -10 -49 -18 11 -12 105 7 105 2 0 3 -25 3 -56z"/>
</g>
</svg>
